<svg width="985" height="118" viewBox="0 0 985 118" fill="none" xmlns="http://www.w3.org/2000/svg">
<path d="M878.719 2.85254H912.298L959.974 80.7735H960.291V2.85254H985V114.983H952.688L903.745 35.1612H903.428V114.983H878.719V2.85254Z" fill="#222222"/>
<path d="M744.688 58.9158C744.688 49.9412 746.166 41.8112 749.123 34.5259C752.185 27.2407 756.409 21.064 761.794 15.996C767.179 10.8224 773.568 6.86295 780.959 4.11777C788.351 1.37259 796.429 0 805.193 0C813.958 0 822.036 1.37259 829.427 4.11777C836.819 6.86295 843.207 10.8224 848.593 15.996C853.978 21.064 858.149 27.2407 861.106 34.5259C864.168 41.8112 865.699 49.9412 865.699 58.9158C865.699 67.8905 864.168 76.0204 861.106 83.3057C858.149 90.591 853.978 96.8205 848.593 101.994C843.207 107.062 836.819 110.969 829.427 113.714C822.036 116.459 813.958 117.832 805.193 117.832C796.429 117.832 788.351 116.459 780.959 113.714C773.568 110.969 767.179 107.062 761.794 101.994C756.409 96.8205 752.185 90.591 749.123 83.3057C746.166 76.0204 744.688 67.8905 744.688 58.9158ZM770.347 58.9158C770.347 64.195 771.139 69.0519 772.723 73.4864C774.412 77.8153 776.788 81.6164 779.851 84.8895C782.913 88.057 786.556 90.5382 790.78 92.3331C795.109 94.1281 799.914 95.0255 805.193 95.0255C810.473 95.0255 815.225 94.1281 819.449 92.3331C823.778 90.5382 827.474 88.057 830.536 84.8895C833.598 81.6164 835.921 77.8153 837.505 73.4864C839.195 69.0519 840.04 64.195 840.04 58.9158C840.04 53.7422 839.195 48.9381 837.505 44.5036C835.921 40.0691 833.598 36.2681 830.536 33.1006C827.474 29.8275 823.778 27.2934 819.449 25.4985C815.225 23.7036 810.473 22.8061 805.193 22.8061C799.914 22.8061 795.109 23.7036 790.78 25.4985C786.556 27.2934 782.913 29.8275 779.851 33.1006C776.788 36.2681 774.412 40.0691 772.723 44.5036C771.139 48.9381 770.347 53.7422 770.347 58.9158Z" fill="#222222"/>
<path d="M703.535 2.85254H728.244V114.983H703.535V2.85254Z" fill="#222222"/>
<path d="M634.593 24.7084H602.598V2.85254H691.297V24.7084H659.302V114.983H634.593V24.7084Z" fill="#222222"/>
<path d="M546.933 2.85254H567.365L616.15 114.983H588.273L578.611 91.2263H535.053L525.708 114.983H498.465L546.933 2.85254ZM556.436 35.478L542.815 70.3207H570.217L556.436 35.478Z" fill="#222222"/>
<path d="M384.621 2.85254H418.2L465.876 80.7735H466.193V2.85254H490.902V114.983H458.59L409.647 35.1612H409.33V114.983H384.621V2.85254Z" fill="#222222"/>
<path d="M307.906 2.85254H328.338L377.123 114.983H349.246L339.584 91.2263H296.026L286.681 114.983H259.438L307.906 2.85254ZM317.409 35.478L303.787 70.3207H331.189L317.409 35.478Z" fill="#222222"/>
<path d="M125.199 2.85254H162.58L188.398 76.0222H188.714L214.691 2.85254H251.913V114.983H227.204V28.9846H226.887L197.426 114.983H178.577L150.225 28.9846H149.908V114.983H125.199V2.85254Z" fill="#222222"/>
<path d="M48.468 2.85254H68.9006L117.685 114.983H89.8084L80.1464 91.2263H36.5886L27.2435 114.983H0L48.468 2.85254ZM57.9715 35.478L44.3498 70.3207H71.7517L57.9715 35.478Z" fill="#222222"/>
</svg>
